# Blender v2.69 (sub 0) OBJ File: 'scene.blend'
# www.blender.org
o Cube.001_Cube.002
v 0.186123 0.072192 -0.141430
v 0.190847 0.072192 -0.210000
v 0.195572 0.072192 -0.141430
v 0.186123 0.232192 -0.141430
v 0.190847 0.112192 -0.210000
v 0.195572 0.232192 -0.141430
v 0.040398 0.031607 -0.106000
v 0.040398 0.031607 -0.124000
v 0.155972 -0.000682 -0.124000
v 0.155972 -0.000682 -0.106000
v 0.115461 0.114465 -0.106000
v 0.115461 0.114465 -0.124000
v 0.174807 0.066736 -0.124000
v 0.174807 0.066736 -0.106000
v 0.180693 0.239561 -0.091450
v 0.217853 0.235901 -0.138551
v 0.214900 0.236796 -0.091450
v 0.239504 0.225011 -0.138551
v 0.258736 0.207908 -0.138550
v 0.245447 0.221152 -0.091450
v 0.263666 0.200848 -0.091450
v 0.271760 0.185707 -0.138551
v 0.278519 0.159276 -0.138551
v 0.274890 0.177685 -0.091450
v 0.278426 0.152192 -0.091450
v 0.276743 0.135106 -0.138551
v 0.267680 0.109375 -0.138550
v 0.275452 0.128139 -0.091450
v 0.263666 0.103536 -0.091450
v 0.245446 0.083232 -0.138550
v 0.247831 0.085189 -0.091450
v 0.224362 0.071280 -0.138551
v 0.224362 0.071280 -0.091450
v 0.197933 0.064520 -0.138551
v 0.201003 0.064822 -0.091450
v 0.163843 0.068482 -0.138551
v 0.173762 0.066296 -0.091450
v 0.135133 0.084303 -0.138551
v 0.150751 0.073905 -0.091450
v 0.128920 0.090264 -0.091450
v 0.118028 0.103536 -0.138551
v 0.106805 0.126697 -0.138551
v 0.113393 0.110792 -0.091450
v 0.104952 0.135106 -0.091450
v 0.103176 0.159277 -0.138551
v 0.103478 0.162347 -0.091450
v 0.109935 0.185707 -0.138551
v 0.123845 0.209176 -0.138551
v 0.114015 0.195009 -0.091450
v 0.150751 0.230478 -0.138550
v 0.135133 0.220081 -0.091450
v 0.157333 0.233104 -0.091450
v 0.183763 0.239863 -0.138551
v 0.182801 0.221415 -0.091450
v 0.212244 0.218515 -0.138551
v 0.209905 0.219225 -0.091450
v 0.240375 0.201719 -0.138551
v 0.234107 0.206830 -0.091450
v 0.257656 0.172459 -0.138551
v 0.255045 0.180674 -0.091450
v 0.260071 0.144146 -0.138551
v 0.260311 0.146579 -0.091450
v 0.251723 0.118268 -0.138551
v 0.252875 0.120423 -0.091450
v 0.234106 0.097554 -0.138550
v 0.235996 0.099105 -0.091450
v 0.209905 0.085159 -0.138551
v 0.212243 0.085868 -0.091450
v 0.182801 0.082968 -0.138551
v 0.185234 0.082729 -0.091450
v 0.150388 0.094785 -0.138551
v 0.153293 0.092844 -0.091450
v 0.126137 0.125388 -0.138551
v 0.129972 0.118268 -0.091450
v 0.122791 0.138655 -0.091450
v 0.121384 0.157805 -0.138551
v 0.121624 0.160238 -0.091450
v 0.126740 0.178746 -0.138551
v 0.137761 0.197340 -0.138551
v 0.129972 0.186116 -0.091450
v 0.159079 0.214219 -0.138551
v 0.151934 0.210430 -0.091450
v 0.185234 0.221655 -0.138551
v -0.186123 0.072192 -0.141430
v -0.190847 0.072192 -0.210000
v -0.195572 0.072192 -0.141430
v -0.186123 0.232192 -0.141430
v -0.190847 0.112192 -0.210000
v -0.195572 0.232192 -0.141430
v -0.040398 0.031607 -0.106000
v -0.040398 0.031607 -0.124000
v -0.155972 -0.000682 -0.124000
v -0.155972 -0.000682 -0.106000
v -0.115461 0.114465 -0.106000
v -0.115461 0.114465 -0.124000
v -0.174807 0.066736 -0.124000
v -0.174807 0.066736 -0.106000
v -0.217853 0.235901 -0.138551
v -0.197932 0.239863 -0.091450
v -0.239504 0.225011 -0.138551
v -0.230944 0.230479 -0.091450
v -0.258736 0.207908 -0.138550
v -0.258962 0.208092 -0.091450
v -0.271760 0.185707 -0.138551
v -0.278519 0.159276 -0.138551
v -0.274890 0.177685 -0.091450
v -0.278426 0.152192 -0.091450
v -0.274557 0.125187 -0.138551
v -0.275452 0.128139 -0.091450
v -0.257850 0.095208 -0.138550
v -0.263666 0.103536 -0.091450
v -0.230944 0.073905 -0.138550
v -0.247831 0.085189 -0.091450
v -0.224362 0.071280 -0.091450
v -0.197933 0.064520 -0.138551
v -0.201003 0.064822 -0.091450
v -0.163843 0.068482 -0.138551
v -0.173762 0.066296 -0.091450
v -0.135133 0.084303 -0.138551
v -0.150751 0.073905 -0.091450
v -0.128920 0.090264 -0.091450
v -0.118028 0.103536 -0.138551
v -0.106805 0.126697 -0.138551
v -0.113393 0.110792 -0.091450
v -0.104952 0.135106 -0.091450
v -0.103176 0.159277 -0.138551
v -0.103478 0.162347 -0.091450
v -0.112561 0.192288 -0.138551
v -0.114015 0.195009 -0.091450
v -0.128920 0.214119 -0.138551
v -0.150751 0.230478 -0.138550
v -0.135133 0.220081 -0.091450
v -0.183763 0.239863 -0.138551
v -0.163842 0.235901 -0.091450
v -0.190847 0.221581 -0.091450
v -0.212244 0.218516 -0.138551
v -0.209905 0.219225 -0.091450
v -0.240375 0.201719 -0.138551
v -0.234107 0.206830 -0.091450
v -0.248542 0.190742 -0.091450
v -0.257656 0.172459 -0.138551
v -0.257435 0.172391 -0.091450
v -0.260071 0.144146 -0.138551
v -0.260311 0.146579 -0.091450
v -0.251723 0.118268 -0.138551
v -0.252875 0.120423 -0.091450
v -0.234106 0.097554 -0.138550
v -0.235996 0.099105 -0.091450
v -0.209905 0.085159 -0.138551
v -0.212243 0.085868 -0.091450
v -0.182801 0.082968 -0.138551
v -0.150388 0.094785 -0.138551
v -0.178863 0.082990 -0.091450
v -0.147588 0.097554 -0.091450
v -0.126137 0.125388 -0.138551
v -0.129972 0.118268 -0.091450
v -0.122791 0.138655 -0.091450
v -0.121384 0.157805 -0.138551
v -0.121624 0.160238 -0.091450
v -0.128820 0.183960 -0.138551
v -0.129972 0.186116 -0.091450
v -0.141782 0.201257 -0.138551
v -0.159079 0.214219 -0.138551
v -0.146704 0.205981 -0.091450
v -0.185234 0.221655 -0.138551
v -0.169451 0.218515 -0.091450
vn -0.997635 0.000000 -0.068732
vn 0.000000 0.000000 1.000000
vn 0.997635 0.000000 -0.068732
vn 0.000000 -1.000000 0.000000
vn 0.000000 0.496130 -0.868248
vn -0.741106 0.671388 0.000000
vn 0.000000 0.000000 -1.000000
vn 0.963119 -0.269075 0.000000
vn -0.269075 -0.963119 0.000000
vn 0.626710 0.779252 0.000000
vn 0.080551 0.996682 0.011648
vn 0.455815 0.889998 0.011649
vn 0.744102 0.667697 0.022184
vn 0.862445 0.505944 -0.014450
vn 0.990262 0.137364 0.022618
vn 0.992308 -0.122691 -0.016494
vn 0.901618 -0.431906 0.023284
vn 0.756915 -0.653305 -0.016498
vn 0.509824 -0.860221 0.009927
vn 0.266433 -0.963853 0.000000
vn -0.054007 -0.998491 0.009930
vn -0.313881 -0.949207 0.022039
vn -0.599524 -0.800050 0.022182
vn -0.747171 -0.664475 -0.014453
vn -0.944468 -0.327907 0.021374
vn -0.993666 -0.110693 -0.019341
vn -0.968769 0.247768 -0.009931
vn -0.505848 0.862326 0.022617
vn -0.266393 0.963723 -0.016495
vn -0.115447 -0.993271 0.009227
vn -0.512487 -0.858333 0.024926
vn -0.860313 -0.508122 0.040916
vn -0.996339 -0.084966 0.009455
vn -0.951665 0.307000 0.009229
vn -0.761729 0.647829 0.009231
vn -0.455837 0.890015 0.009229
vn -0.080544 0.996708 0.009230
vn 0.342453 0.939370 0.017591
vn 0.783391 0.620803 0.030047
vn 0.988998 0.144978 0.029403
vn 0.968786 -0.247773 0.007868
vn 0.860075 -0.509746 0.020740
vn 0.620436 -0.783641 0.031083
vn 0.273445 -0.961844 0.009230
vn -0.000003 -0.000004 1.000000
vn -0.000004 -0.000004 -1.000000
vn -0.000003 0.000003 1.000000
vn 0.000001 -0.000003 -1.000000
vn 0.000001 -0.000002 1.000000
vn -0.000001 -0.000001 1.000000
vn 0.000001 0.000001 1.000000
vn 0.000002 0.000002 -1.000000
vn -0.000001 0.000000 1.000000
vn -0.000000 -0.000001 1.000000
vn -0.000003 0.000004 1.000000
vn 0.000001 0.000000 -1.000000
vn -0.000004 0.000000 -1.000000
vn 0.000004 0.000000 -1.000000
vn 0.000000 -0.000002 1.000000
vn -0.000003 -0.000001 1.000000
vn -0.000001 0.000002 1.000000
vn -0.000002 -0.000004 -1.000000
vn -0.000011 0.000009 -1.000000
vn 0.000000 0.000001 1.000000
vn -0.000002 0.000011 1.000000
vn -0.000002 0.000001 -1.000000
vn -0.000001 -0.000001 -1.000000
vn -0.000001 -0.000000 -1.000000
vn 0.000005 -0.000001 -1.000000
vn 0.000008 -0.000004 -1.000000
vn 0.000003 0.000005 1.000000
vn 0.000008 0.000004 -1.000000
vn -0.997635 0.000000 -0.068733
vn 0.963119 -0.269074 0.000000
vn 0.626711 0.779252 0.000000
vn 0.115447 0.993245 -0.011645
vn 0.449291 0.893234 0.016486
vn 0.664364 0.747066 -0.022630
vn 0.968579 0.247715 -0.022183
vn 0.997176 -0.073269 0.016495
vn 0.942946 -0.332131 -0.023281
vn 0.761717 -0.647805 -0.011650
vn 0.493158 -0.869940 0.000000
vn 0.247768 -0.968769 -0.009931
vn -0.115424 -0.993077 -0.021792
vn -0.482356 -0.875342 -0.033293
vn -0.899707 -0.435970 -0.021379
vn 0.741590 -0.669832 -0.037003
vn -0.951476 0.306952 0.021793
vn -0.859967 0.509678 -0.026172
vn -0.620403 0.783599 -0.032748
vn -0.273438 0.961819 -0.011649
vn -0.080547 -0.996708 -0.009230
vn -0.455831 -0.890018 -0.009233
vn -0.780165 -0.624534 -0.036062
vn -0.987890 -0.152578 -0.028170
vn -0.961845 0.273439 -0.009230
vn -0.783979 0.620719 -0.009228
vn -0.486776 0.873478 -0.009235
vn -0.115447 0.993271 -0.009229
vn 0.301886 0.953283 -0.010742
vn 0.736820 0.675860 -0.017589
vn 0.942868 0.332105 -0.026581
vn 0.899825 0.436011 0.014453
vn 0.951561 -0.306976 -0.017267
vn -0.764402 0.643836 0.034124
vn 0.335173 -0.941827 -0.024917
vn 0.000000 -0.000001 -1.000000
vn -0.998491 -0.054007 0.009930
vn 0.000000 0.000007 1.000000
vn 0.000000 -0.000003 1.000000
vn 0.000005 0.000001 -1.000000
vn 0.000001 -0.000004 1.000000
vn -0.000002 -0.000003 -1.000000
vn -0.000008 0.000010 -1.000000
vn 0.000005 0.000004 -1.000000
vn -0.000002 0.000002 1.000000
vn 0.000002 0.000004 -1.000000
vn -0.000003 0.000002 1.000000
vn 0.000006 0.000002 -1.000000
vn -0.000002 -0.000002 1.000000
vn 0.000003 0.000001 -1.000000
vn 0.000002 -0.000012 -1.000000
vn -0.797464 -0.603194 0.014445
vn -0.000002 -0.000002 -1.000000
vn -0.000002 -0.000001 1.000000
vn -0.000005 0.000009 1.000000
vn 0.000002 0.000003 -1.000000
vn 0.000003 0.000000 1.000000
vn -0.000006 -0.000003 -1.000000
vn 0.998509 0.054011 -0.007868
vn 0.741106 0.671388 0.000000
vn -0.963119 -0.269075 0.000000
vn 0.269075 -0.963119 0.000000
vn -0.626710 0.779252 0.000000
vn -0.273287 0.961306 0.034711
vn -0.624056 0.781049 0.022737
vn -0.862519 0.505987 -0.006130
vn -0.990262 0.137364 0.022618
vn -0.992308 -0.122689 -0.016494
vn -0.901819 -0.432001 0.009933
vn -0.756834 -0.653235 0.022038
vn -0.509711 -0.860031 0.023284
vn -0.266397 -0.963722 -0.016494
vn 0.054007 -0.998491 0.009930
vn 0.313881 -0.949207 0.022039
vn 0.599524 -0.800050 0.022182
vn 0.747171 -0.664475 -0.014453
vn 0.944468 -0.327907 0.021374
vn 0.993666 -0.110693 -0.019341
vn 0.961818 0.273441 -0.011649
vn 0.800209 0.599639 -0.009932
vn 0.482340 0.875351 0.033287
vn 0.115388 0.992714 0.034713
vn 0.115440 -0.993272 0.009224
vn 0.512487 -0.858333 0.024926
vn 0.860626 -0.508307 0.030782
vn 0.996339 -0.084966 0.009455
vn 0.951665 0.307000 0.009229
vn 0.761729 0.647829 0.009231
vn 0.455837 0.890015 0.009229
vn 0.080546 0.996725 -0.007188
vn -0.342370 0.939142 0.028195
vn -0.783391 0.620803 0.030047
vn -0.988998 0.144978 0.029403
vn -0.961843 -0.273447 0.009229
vn -0.800224 -0.599649 0.007870
vn -0.599572 -0.800127 0.017582
vn -0.273353 -0.961520 0.027506
vn 0.000002 -0.000003 -1.000000
vn -0.000002 0.000003 -1.000000
vn 0.000001 -0.000001 1.000000
vn -0.000001 -0.000003 -1.000000
vn -0.000000 0.000001 -1.000000
vn -0.000001 -0.000002 1.000000
vn -0.000002 0.000002 -1.000000
vn 0.000001 0.000000 1.000000
vn 0.000001 0.000007 1.000000
vn 0.000001 -0.000001 -1.000000
vn 0.000007 -0.000001 1.000000
vn 0.000002 -0.000004 -1.000000
vn 0.000011 0.000009 -1.000000
vn 0.000000 0.000002 1.000000
vn 0.000002 0.000011 1.000000
vn 0.000003 -0.000004 1.000000
vn -0.000008 0.000004 -1.000000
vn 0.997635 0.000000 -0.068733
vn -0.963119 -0.269074 0.000000
vn -0.626711 0.779252 0.000000
vn -0.115385 0.992714 -0.034714
vn -0.449242 0.893138 -0.022044
vn -0.664522 0.747243 -0.006123
vn 0.899901 -0.436068 -0.004859
vn -0.968579 0.247715 -0.022183
vn -0.993245 -0.115450 -0.011646
vn -0.873310 -0.486678 -0.021794
vn -0.620365 -0.783545 -0.034712
vn -0.273441 -0.961818 -0.011649
vn 0.115424 -0.993077 -0.021792
vn 0.482356 -0.875342 -0.033293
vn 0.899707 -0.435970 -0.021379
vn -0.764756 -0.644138 -0.015325
vn 0.951637 0.307003 0.011650
vn 0.599520 0.800052 -0.022191
vn 0.273292 0.961305 -0.034712
vn 0.122693 -0.992359 0.013069
vn 0.455831 -0.890018 -0.009233
vn 0.744010 -0.667640 -0.026574
vn 0.993840 -0.110718 -0.004835
vn 0.961845 0.273439 -0.009230
vn 0.783979 0.620719 -0.009228
vn 0.486776 0.873478 -0.009235
vn 0.085903 0.996246 -0.010741
vn -0.421978 0.906168 -0.028190
vn -0.761754 0.647827 0.007195
vn -0.942868 0.332105 -0.026581
vn -0.885649 0.463918 0.020148
vn -0.951662 -0.307009 -0.009230
vn 0.764705 0.644091 0.019339
vn -0.482442 -0.875530 -0.026381
vn -0.141817 -0.989721 -0.018451
vn 0.000002 -0.000000 -1.000000
vn 0.998491 -0.054007 0.009930
vn -0.000001 0.000001 -1.000000
vn 0.000001 0.000003 1.000000
vn -0.000005 0.000001 -1.000000
vn -0.000007 -0.000010 -1.000000
vn 0.000008 0.000010 -1.000000
vn -0.000005 0.000004 -1.000000
vn 0.000002 0.000001 -1.000000
vn 0.000003 0.000002 1.000000
vn -0.000006 0.000004 -1.000000
vn 0.000002 0.000003 1.000000
vn 0.000002 -0.000002 1.000000
vn -0.000003 0.000001 -1.000000
vn -0.000001 -0.000011 -1.000000
vn 0.797464 -0.603194 0.014445
vn 0.000002 -0.000001 1.000000
vn 0.000005 0.000009 1.000000
vn -0.000002 0.000004 -1.000000
vn 0.000002 -0.000005 1.000000
vn 0.000006 -0.000003 -1.000000
vn -0.998509 0.054011 -0.007868
s off
f 4//1 5//1 1//1
f 6//2 4//2 1//2
f 5//3 6//3 3//3
f 1//4 2//4 3//4
f 6//5 5//5 4//5
f 11//6 12//6 8//6
f 12//7 13//7 9//7
f 13//8 14//8 10//8
f 14//2 11//2 10//2
f 7//9 8//9 9//9
f 14//10 13//10 12//10
f 53//11 15//11 17//11
f 16//12 17//12 20//12
f 19//13 20//13 21//13
f 19//14 21//14 22//14
f 23//15 24//15 25//15
f 23//16 25//16 28//16
f 27//17 28//17 29//17
f 27//18 29//18 31//18
f 30//19 31//19 33//19
f 32//20 33//20 35//20
f 34//21 35//21 37//21
f 36//22 37//22 39//22
f 38//23 39//23 40//23
f 38//24 40//24 41//24
f 42//25 43//25 44//25
f 42//26 44//26 45//26
f 45//27 46//27 47//27
f 50//28 51//28 52//28
f 50//29 52//29 15//29
f 83//30 55//30 56//30
f 55//31 57//31 58//31
f 57//32 59//32 60//32
f 59//33 61//33 62//33
f 61//34 63//34 64//34
f 63//35 65//35 66//35
f 65//36 67//36 68//36
f 67//37 69//37 70//37
f 69//38 71//38 72//38
f 71//39 73//39 74//39
f 73//40 76//40 75//40
f 76//41 78//41 77//41
f 78//42 79//42 80//42
f 79//43 81//43 82//43
f 81//44 83//44 54//44
f 39//45 72//45 40//45
f 16//46 55//46 53//46
f 51//47 82//47 52//47
f 36//48 71//48 69//48
f 17//49 56//49 20//49
f 24//50 60//50 62//50
f 15//51 54//51 56//51
f 22//52 59//52 19//52
f 37//53 70//53 39//53
f 43//54 74//54 44//54
f 49//55 80//55 82//55
f 34//56 69//56 67//56
f 41//57 73//57 71//57
f 47//7 78//7 45//7
f 53//58 83//58 81//58
f 28//59 64//59 29//59
f 40//60 72//60 43//60
f 32//52 67//52 30//52
f 46//50 77//50 80//50
f 52//61 82//61 15//61
f 38//62 71//62 36//62
f 45//7 76//7 73//7
f 50//63 81//63 79//63
f 25//64 62//64 28//64
f 31//65 66//65 68//65
f 30//66 65//66 27//66
f 44//2 75//2 46//2
f 36//67 69//67 34//67
f 42//68 73//68 41//68
f 48//69 79//69 78//69
f 29//45 64//45 66//45
f 27//70 63//70 26//70
f 34//7 67//7 32//7
f 20//71 58//71 21//71
f 28//64 62//64 64//64
f 18//72 57//72 16//72
f 5//73 2//73 1//73
f 3//2 6//2 1//2
f 2//3 5//3 3//3
f 7//6 11//6 8//6
f 8//7 12//7 9//7
f 9//74 13//74 10//74
f 11//2 7//2 10//2
f 10//9 7//9 9//9
f 11//75 14//75 12//75
f 16//76 53//76 17//76
f 18//77 16//77 20//77
f 19//78 18//78 20//78
f 23//79 22//79 24//79
f 26//80 23//80 28//80
f 27//81 26//81 28//81
f 30//82 27//82 31//82
f 32//83 30//83 33//83
f 34//84 32//84 35//84
f 36//85 34//85 37//85
f 38//86 36//86 39//86
f 78//7 76//7 45//7
f 42//87 41//87 43//87
f 79//88 82//88 80//88
f 46//89 49//89 47//89
f 48//90 47//90 49//90
f 50//91 48//91 51//91
f 53//92 50//92 15//92
f 54//93 83//93 56//93
f 56//94 55//94 58//94
f 58//95 57//95 60//95
f 60//96 59//96 62//96
f 62//97 61//97 64//97
f 64//98 63//98 66//98
f 66//99 65//99 68//99
f 68//100 67//100 70//100
f 70//101 69//101 72//101
f 72//102 71//102 74//102
f 74//103 73//103 75//103
f 21//104 24//104 22//104
f 78//105 80//105 77//105
f 49//106 51//106 48//106
f 82//107 81//107 54//107
f 61//108 59//108 23//108
f 55//7 83//7 53//7
f 44//109 46//109 45//109
f 56//110 58//110 20//110
f 25//111 24//111 62//111
f 17//54 15//54 56//54
f 59//112 57//112 19//112
f 70//113 72//113 39//113
f 74//54 75//54 44//54
f 51//55 49//55 82//55
f 38//114 41//114 71//114
f 50//115 53//115 81//115
f 24//61 21//61 60//61
f 18//116 19//116 57//116
f 68//2 70//2 35//2
f 23//108 26//108 61//108
f 72//117 74//117 43//117
f 67//118 65//118 30//118
f 49//119 46//119 80//119
f 82//51 54//51 15//51
f 42//108 45//108 73//108
f 48//120 50//120 79//120
f 33//121 31//121 68//121
f 22//122 23//122 59//122
f 65//123 63//123 27//123
f 40//124 43//124 41//124
f 47//125 48//125 78//125
f 75//126 77//126 46//126
f 31//127 29//127 66//127
f 37//2 35//2 70//2
f 63//128 61//128 26//128
f 58//129 60//129 21//129
f 35//2 33//2 68//2
f 57//130 55//130 16//130
f 76//131 77//131 75//131
f 87//3 84//3 88//3
f 89//2 84//2 87//2
f 88//1 86//1 89//1
f 84//4 86//4 85//4
f 89//5 87//5 88//5
f 94//132 91//132 95//132
f 95//7 92//7 96//7
f 96//133 93//133 97//133
f 97//2 93//2 94//2
f 90//134 92//134 91//134
f 97//135 95//135 96//135
f 98//136 101//136 99//136
f 100//137 103//137 101//137
f 102//138 104//138 103//138
f 105//139 107//139 106//139
f 105//140 109//140 107//140
f 108//141 111//141 109//141
f 110//142 113//142 111//142
f 112//143 114//143 113//143
f 112//144 116//144 114//144
f 115//145 118//145 116//145
f 117//146 120//146 118//146
f 119//147 121//147 120//147
f 119//148 122//148 121//148
f 123//149 125//149 124//149
f 123//150 126//150 125//150
f 126//151 128//151 127//151
f 128//152 130//152 129//152
f 131//153 134//153 132//153
f 133//154 99//154 134//154
f 165//155 137//155 136//155
f 136//156 139//156 138//156
f 138//157 140//157 141//157
f 141//158 144//158 143//158
f 143//159 146//159 145//159
f 145//160 148//160 147//160
f 147//161 150//161 149//161
f 149//162 153//162 151//162
f 151//163 153//163 152//163
f 152//164 156//164 155//164
f 155//165 157//165 158//165
f 158//166 159//166 160//166
f 160//167 161//167 162//167
f 162//168 164//168 163//168
f 163//169 166//169 165//169
f 120//54 121//54 154//54
f 98//170 133//170 136//170
f 112//171 110//171 147//171
f 132//172 134//172 164//172
f 117//173 151//173 152//173
f 130//174 128//174 162//174
f 106//175 144//175 142//175
f 99//54 137//54 135//54
f 104//176 102//176 141//176
f 118//177 120//177 153//177
f 124//54 125//54 156//54
f 129//178 164//178 161//178
f 115//68 149//68 151//68
f 122//58 152//58 155//58
f 128//179 126//179 160//179
f 133//57 163//57 165//57
f 103//180 142//180 140//180
f 109//175 111//175 146//175
f 121//64 124//64 154//64
f 127//172 161//172 159//172
f 119//181 117//181 152//181
f 126//7 155//7 158//7
f 131//182 162//182 163//182
f 107//183 109//183 144//183
f 113//184 150//184 148//184
f 120//54 154//54 153//54
f 125//2 127//2 157//2
f 117//179 115//179 151//179
f 123//56 122//56 155//56
f 111//185 148//185 146//185
f 115//68 112//68 149//68
f 134//59 135//59 166//59
f 109//183 146//183 144//183
f 100//186 98//186 138//186
f 88//187 84//187 85//187
f 86//2 84//2 89//2
f 85//1 86//1 88//1
f 90//132 91//132 94//132
f 91//7 92//7 95//7
f 92//188 93//188 96//188
f 94//2 93//2 90//2
f 93//134 92//134 90//134
f 94//189 95//189 97//189
f 98//190 99//190 133//190
f 100//191 101//191 98//191
f 102//192 103//192 100//192
f 141//193 140//193 142//193
f 105//194 106//194 104//194
f 108//195 109//195 105//195
f 110//196 111//196 108//196
f 112//197 113//197 110//197
f 115//198 116//198 112//198
f 117//199 118//199 115//199
f 119//200 120//200 117//200
f 160//108 126//108 158//108
f 123//201 124//201 122//201
f 162//202 161//202 164//202
f 127//203 128//203 129//203
f 131//204 132//204 130//204
f 133//205 134//205 131//205
f 135//206 137//206 165//206
f 137//207 139//207 136//207
f 139//208 140//208 138//208
f 142//209 144//209 141//209
f 144//210 146//210 143//210
f 146//211 148//211 145//211
f 148//212 150//212 147//212
f 150//213 153//213 149//213
f 153//214 154//214 152//214
f 154//215 156//215 152//215
f 156//216 157//216 155//216
f 103//217 104//217 106//217
f 160//218 159//218 161//218
f 129//219 130//219 132//219
f 164//220 166//220 163//220
f 166//221 135//221 165//221
f 143//108 105//108 141//108
f 136//222 133//222 165//222
f 125//223 126//223 127//223
f 164//59 134//59 166//59
f 162//224 128//224 160//224
f 137//225 101//225 139//225
f 107//111 144//111 106//111
f 141//226 102//226 138//226
f 156//54 125//54 157//54
f 108//227 145//227 110//227
f 132//53 164//53 129//53
f 119//170 152//170 122//170
f 131//228 163//228 133//228
f 106//172 142//172 103//172
f 100//229 138//229 102//229
f 150//2 116//2 153//2
f 105//230 143//230 108//230
f 154//177 124//177 156//177
f 149//171 112//171 147//171
f 129//231 161//231 127//231
f 123//108 155//108 126//108
f 130//232 162//232 131//232
f 103//233 139//233 101//233
f 114//234 150//234 113//234
f 104//235 141//235 105//235
f 147//236 110//236 145//236
f 121//237 122//237 124//237
f 101//50 137//50 99//50
f 157//238 127//238 159//238
f 113//239 148//239 111//239
f 118//2 153//2 116//2
f 145//240 108//240 143//240
f 99//2 135//2 134//2
f 139//241 103//241 140//241
f 116//2 150//2 114//2
f 138//242 98//242 136//242
f 158//243 157//243 159//243
